<?xml version="1.0" encoding="iso-8859-1"?>
<!-- Generator: Adobe Illustrator 19.0.0, SVG Export Plug-In . SVG Version: 6.00 Build 0)  -->
<svg xmlns="http://www.w3.org/2000/svg" xmlns:xlink="http://www.w3.org/1999/xlink" version="1.1" id="Layer_1" x="0px" y="0px" viewBox="0 0 512.001 512.001" style="enable-background:new 0 0 512.001 512.001;" xml:space="preserve" width="512px" height="512px">
<g>
	<g>
		<g>
			<path d="M155.371,146.531c16.652,0,30.199-13.547,30.199-30.199c0-16.653-13.547-30.2-30.199-30.2s-30.199,13.547-30.199,30.2     C125.172,132.984,138.719,146.531,155.371,146.531z M155.371,101.13c8.382,0,15.201,6.819,15.201,15.202     c0,8.382-6.819,15.201-15.201,15.201s-15.201-6.819-15.201-15.201S146.989,101.13,155.371,101.13z" fill="#91DC5A"/>
			<path d="M91.72,216.822c20.094,0,36.442-16.348,36.442-36.442s-16.349-36.442-36.442-36.442     c-20.094,0-36.442,16.348-36.442,36.442C55.278,200.474,71.626,216.822,91.72,216.822z M91.72,158.936     c11.824,0,21.444,9.62,21.444,21.444c0,11.824-9.62,21.444-21.444,21.444s-21.444-9.62-21.444-21.444     S79.896,158.936,91.72,158.936z" fill="#91DC5A"/>
			<path d="M154.592,296.409c-20.093,0-36.442,16.349-36.442,36.442c0,20.093,16.349,36.442,36.442,36.442     c20.093,0,36.442-16.348,36.442-36.442C191.033,312.757,174.685,296.409,154.592,296.409z M154.592,354.296     c-11.824,0-21.444-9.62-21.444-21.444s9.62-21.444,21.444-21.444c11.824,0,21.444,9.62,21.444,21.444     S166.416,354.296,154.592,354.296z" fill="#91DC5A"/>
			<path d="M84.622,233.803c-20.298,0-36.812,16.514-36.812,36.812s16.515,36.812,36.812,36.812     c20.297,0,36.812-16.515,36.812-36.812C121.435,250.317,104.92,233.803,84.622,233.803z M84.622,292.43     c-12.028,0-21.814-9.786-21.814-21.814c0-12.028,9.786-21.814,21.814-21.814c12.028,0,21.814,9.786,21.814,21.814     C106.437,282.643,96.651,292.43,84.622,292.43z" fill="#91DC5A"/>
			<path d="M504.594,135.603c-14.819-14.819-35.377-4.139-44.182,3.578l-85.544,75.057c-5.193-33.216-21.952-40.721-36.007-40.721     c-16.376,0-32.342,10.782-36.91,14.135l-30.729,23.057c-17.023,12.775-41.274,7.964-52.234-10.206     c-9.517-15.785-5.555-36.046,9.214-47.128l30.792-23.106c44.382-34.053,31.339-79.395-49.511-89.033     C111.676,29.461,16.685,98.106,1.921,201.613c-15.267,107.048,62.254,203.853,168.544,213.903     c-3.904,15.636-3.036,32.165,3.17,47.015c0.761,1.82,2.208,3.268,4.027,4.027c45.813,19.146,104.385-14.083,100.842-60.475     c2.246-0.395-0.816,1.352,44.559-29.343c15.649,7.38,33.302-9.163,27.296-25.255L456.72,230.267     c2.731-3.113,2.422-7.851-0.691-10.582c-3.113-2.731-7.851-2.423-10.582,0.691l-104.579,119.19l-40.239-40.238     c3.31-2.904,161.819-141.98,169.64-148.842c0.151-0.129,15.176-12.818,23.719-4.276c8.54,8.54-4.149,23.571-4.246,23.685     l-28.24,32.185c-2.731,3.113-2.422,7.851,0.691,10.582c3.112,2.731,7.852,2.423,10.582-0.691l28.248-32.194     C508.726,170.968,519.387,150.4,504.594,135.603z M251.962,437.659c-17.468,17.47-43.251,24.112-65.606,16.184     c-11.585-32.771,10.609-77.342,43.844-77.342c9.15,0,17.617,3.426,23.844,9.653C267.669,399.78,266.735,422.886,251.962,437.659z      M278.131,389.032c-11.545-11.546-16.317-16.318-26.966-26.968l22.445-33.18l37.701,37.703L278.131,389.032z M336.572,358.111     c0,1.961-1.181,2.813-2.663,4.294c-1.486,1.488-4.08,1.488-5.568-0.002l-50.55-50.551c-1.536-1.536-1.536-4.034,0-5.57     l1.506-1.506c1.488-1.491,4.082-1.489,5.57,0C339.649,359.557,336.572,355.762,336.572,358.111z M288.726,289.817     c-15.893-5.937-32.645,11.633-25.281,27.324c-29.797,44.051-28.902,42.084-29.339,44.509     c-26.251-2.005-47.492,15.597-58.548,39.253C75.87,393.586,2.544,303.464,16.77,203.731     c12.817-89.869,91.397-151.7,177.415-148.606c39.368,1.362,72.092,15.595,74.825,31.818     c2.428,14.405-16.932,29.727-19.082,31.378l-30.728,23.058c-24.205,18.164-27.316,52.953-6.827,75.169     c17.208,18.656,46.494,22.186,67.851,6.157l30.664-23.009c7.029-5.158,18.573-11.181,27.974-11.181     c13.088,0,20.572,12.705,22.27,37.775L288.726,289.817z" fill="#91DC5A"/>
		</g>
	</g>
</g>
<g>
</g>
<g>
</g>
<g>
</g>
<g>
</g>
<g>
</g>
<g>
</g>
<g>
</g>
<g>
</g>
<g>
</g>
<g>
</g>
<g>
</g>
<g>
</g>
<g>
</g>
<g>
</g>
<g>
</g>
</svg>
